<svg xmlns="http://www.w3.org/2000/svg" width="22" height="22" viewBox="0 0 22 22">
    <g fill="none" fill-rule="evenodd">
        <path stroke="#333" stroke-linecap="round" stroke-linejoin="round" d="M3 11.859v5.972l3.475-2.767h9.32c1.115 0 1.519-.116 1.926-.334.407-.218.727-.538.945-.945.218-.408.334-.812.334-1.926V7.205c0-1.115-.116-1.519-.334-1.926a2.272 2.272 0 0 0-.945-.945C17.314 4.116 16.91 4 15.795 4h-9.59c-1.115 0-1.519.116-1.926.334a2.272 2.272 0 0 0-.945.945C3.116 5.686 3 6.09 3 7.205v4.654z"/>
        <rect width="6" height="1" x="6" y="7.5" fill="#333" rx=".5"/>
        <rect width="9" height="1" x="6" y="10.5" fill="#333" rx=".5"/>
    </g>
</svg>
