<svg width="76" height="18" viewBox="0 0 76 18" fill="none" xmlns="http://www.w3.org/2000/svg">
<g clip-path="url(#clip0_7820_43121)">
<path d="M21.9993 8.56808C21.9359 8.40199 21.843 8.24876 21.725 8.1158L19.7917 6.02678L18.6795 4.81452C18.5393 4.66484 18.3695 4.54588 18.1809 4.46516C17.9924 4.38443 17.7891 4.34371 17.584 4.34555H16.4793L16.5312 3.66713C16.5489 3.47739 16.5264 3.28604 16.4653 3.10555C16.4042 2.92506 16.3057 2.75947 16.1763 2.61957C16.0469 2.47968 15.8894 2.36861 15.7142 2.2936C15.5391 2.2186 15.35 2.18133 15.1595 2.18424H6.06195C5.65989 2.19049 5.27441 2.34552 4.97999 2.6194C4.68557 2.89328 4.50311 3.26657 4.46785 3.66713L4.28249 6.01195H2.76252C2.6116 6.01195 2.46685 6.07191 2.36013 6.17863C2.25342 6.28535 2.19346 6.43009 2.19346 6.58101C2.19346 6.73194 2.25342 6.87668 2.36013 6.98339C2.46685 7.09011 2.6116 7.15007 2.76252 7.15007H6.07122C6.17396 7.15007 6.27251 7.19088 6.34516 7.26354C6.41782 7.33619 6.45863 7.43473 6.45863 7.53748C6.45863 7.64022 6.41782 7.73876 6.34516 7.81141C6.27251 7.88406 6.17396 7.92488 6.07122 7.92488H0.567841C0.422773 7.93317 0.286379 7.99664 0.186608 8.10227C0.0868363 8.20791 0.03125 8.34771 0.03125 8.49301C0.03125 8.63832 0.0868363 8.77811 0.186608 8.88375C0.286379 8.98939 0.422773 9.05286 0.567841 9.06115H4.86637C4.96912 9.06115 5.06766 9.10196 5.14032 9.17462C5.21297 9.24727 5.25378 9.34581 5.25378 9.44855C5.25378 9.5513 5.21297 9.64983 5.14032 9.72249C5.06766 9.79514 4.96912 9.83596 4.86637 9.83596H1.21476C1.06384 9.83596 0.919091 9.89591 0.812372 10.0026C0.705653 10.1093 0.645701 10.2541 0.645701 10.405C0.645701 10.5559 0.705653 10.7007 0.812372 10.8074C0.919091 10.9141 1.06384 10.9741 1.21476 10.9741H3.91177L3.73753 13.2614C3.72858 13.3774 3.7437 13.4939 3.78194 13.6037C3.82019 13.7135 3.88073 13.8142 3.95976 13.8995C4.03879 13.9848 4.13459 14.0528 4.24117 14.0993C4.34775 14.1458 4.46278 14.1698 4.57906 14.1697H5.69123C5.70561 14.5994 5.8864 15.0066 6.19543 15.3055C6.50446 15.6044 6.91753 15.7714 7.34743 15.7714C7.77734 15.7714 8.19042 15.6044 8.49945 15.3055C8.80848 15.0066 8.98926 14.5994 9.00364 14.1697H16.6275C16.6419 14.5994 16.8227 15.0066 17.1317 15.3055C17.4408 15.6044 17.8538 15.7714 18.2838 15.7714C18.7137 15.7714 19.1267 15.6044 19.4358 15.3055C19.7448 15.0066 19.9256 14.5994 19.94 14.1697H20.9502C21.1628 14.1698 21.3677 14.0894 21.5234 13.9446C21.6792 13.7998 21.7744 13.6014 21.7899 13.3893L22.1013 9.23168C22.1169 9.00566 22.082 8.779 21.9993 8.56808Z" fill="url(#paint0_linear_7820_43121)"/>
<path d="M12.6604 4.91272C11.9709 4.91235 11.2969 5.11639 10.7234 5.49904C10.1499 5.88169 9.70269 6.42577 9.43834 7.06252C9.174 7.69926 9.10437 8.40008 9.23824 9.0764C9.37211 9.75271 9.70349 10.3742 10.1905 10.8622C10.6775 11.3502 11.2982 11.6829 11.9742 11.8182C12.6502 11.9535 13.3512 11.8854 13.9885 11.6224C14.6258 11.3594 15.1709 10.9134 15.5547 10.3407C15.9386 9.76799 16.1441 9.09436 16.1452 8.40493C16.1457 7.94681 16.0559 7.49309 15.881 7.06966C15.7062 6.64622 15.4496 6.26138 15.126 5.9371C14.8024 5.61282 14.4181 5.35545 13.9951 5.17969C13.572 5.00392 13.1185 4.91321 12.6604 4.91272ZM13.2535 8.40307C13.2537 8.47771 13.2389 8.55163 13.2099 8.62042C13.1809 8.6892 13.1384 8.75145 13.0849 8.80345L11.2702 10.5607L10.4954 9.76177L12.1377 8.16766V5.92294H13.2498L13.2535 8.40307Z" fill="white"/>
<path d="M33.632 7.69039H32.8664L32.8702 7.64219L33.2112 3.55127H31.5244L30.9535 10.4152H27.3353L27.339 10.367L27.8543 4.18521H26.034L25.3945 11.8833H30.8312L30.8275 11.9315L30.6217 14.4079H32.3067L32.7478 9.11026H33.5134L33.5096 9.15845L33.0741 14.4079H34.7831L35.6858 3.55127H33.9768L33.632 7.69039Z" fill="#4379FF"/>
<path d="M40.4929 8.63938C40.9274 8.42644 41.2981 8.10297 41.568 7.70145C41.843 7.29625 42.006 6.82563 42.0407 6.33719C42.0907 5.86561 42.0066 5.38949 41.7979 4.96366C41.5944 4.56853 41.2748 4.24512 40.8822 4.03685C40.4414 3.80722 39.9499 3.69246 39.4531 3.70321C38.932 3.69597 38.4166 3.81088 37.9479 4.03871C37.5116 4.25094 37.1384 4.57365 36.8654 4.97478C36.5911 5.38513 36.4283 5.85973 36.3927 6.35202C36.3432 6.81998 36.4274 7.2924 36.6356 7.71442C36.8416 8.11148 37.1653 8.43518 37.5624 8.64123C38.0095 8.87149 38.5072 8.9862 39.01 8.97488C39.5238 8.98035 40.0316 8.86545 40.4929 8.63938ZM37.9887 6.33719C38.0085 5.97839 38.1627 5.6402 38.4206 5.38999C38.671 5.15522 39.0043 5.02924 39.3474 5.03966C39.5093 5.02952 39.6714 5.05609 39.8217 5.11739C39.9719 5.1787 40.1063 5.27315 40.2149 5.3937C40.321 5.52644 40.3992 5.67926 40.4448 5.84299C40.4903 6.00673 40.5023 6.17798 40.48 6.34646C40.4611 6.70341 40.3121 7.04107 40.061 7.29551C39.9382 7.41339 39.7927 7.5052 39.6334 7.5654C39.4742 7.62561 39.3044 7.65297 39.1342 7.64584C38.9707 7.65514 38.8072 7.62824 38.6553 7.56704C38.5035 7.50584 38.367 7.41185 38.2556 7.2918C38.1474 7.15988 38.0678 7.00689 38.0218 6.84255C37.9759 6.67822 37.9646 6.50612 37.9887 6.33719Z" fill="#4379FF"/>
<path d="M44.4139 8.90634C44.5103 7.80363 44.877 6.74167 45.4816 5.81451L45.667 3.5531H43.6632L43.1702 9.45686H38.2637L38.1543 10.784H43.0738L43.0293 11.3086H38.1228L37.8633 14.4153H44.7661L44.8773 13.077H39.7577L39.8022 12.5505H44.9218L44.9682 11.9945C44.5117 11.0328 44.3204 9.9667 44.4139 8.90634Z" fill="#4379FF"/>
<path d="M62.5406 9.5607L59.0188 4.17595H56.5164L56.3829 5.76264C56.8656 6.73883 57.0701 7.82904 56.9742 8.91378C56.8761 10.0413 56.4934 11.1255 55.8621 12.0649L55.7305 13.6424H58.3126L58.776 8.06483L62.4276 13.6424H64.4814L65.2692 4.17224H62.9874L62.5406 9.5607Z" fill="#4379FF"/>
<path d="M54.6638 5.20286C54.214 4.72027 53.6685 4.33682 53.062 4.07702C52.4556 3.81722 51.8017 3.68677 51.142 3.69401C48.2707 3.69401 45.7387 6.03698 45.4996 8.91564C45.4337 9.58561 45.5096 10.2619 45.7223 10.9006C45.935 11.5394 46.2797 12.1261 46.7341 12.6229C47.1837 13.1057 47.7292 13.4894 48.3357 13.7492C48.9422 14.009 49.5962 14.1393 50.2559 14.1317C53.1272 14.1317 55.6574 11.7887 55.8965 8.91008C55.9627 8.24024 55.8872 7.56397 55.6748 6.92525C55.4625 6.28653 55.118 5.69967 54.6638 5.20286ZM53.5832 8.91008C53.5087 9.69272 53.1488 10.4206 52.572 10.9549C51.9953 11.4892 51.2422 11.7926 50.4561 11.8073C50.0881 11.8118 49.7231 11.7392 49.3847 11.5943C49.0464 11.4494 48.742 11.2353 48.4913 10.9657C48.2386 10.6899 48.0468 10.3641 47.9283 10.0093C47.8098 9.65445 47.7673 9.27868 47.8036 8.90638C47.8798 8.1252 48.2401 7.39918 48.8162 6.86613C49.3923 6.33308 50.1441 6.03011 50.9288 6.01474C51.2969 6.01002 51.662 6.08246 52.0004 6.22741C52.3388 6.37235 52.6431 6.58658 52.8936 6.85628C53.1466 7.13198 53.3387 7.45781 53.4575 7.8126C53.5763 8.1674 53.6191 8.54322 53.5832 8.91564V8.91008Z" fill="#4379FF"/>
<path d="M74.5746 7.48465L74.5783 7.43646L74.9026 3.54016H73.0843L72.1797 14.4153H73.9981L74.4522 8.95271H75.9333L76.0556 7.48465H74.5746Z" fill="#4379FF"/>
<path d="M68.308 5.64405H71.7187L71.8391 4.18896H66.6101L65.9688 11.8833H71.4777L71.6 10.4153H67.9095L67.915 10.3671L68.308 5.64405Z" fill="#4379FF"/>
</g>
<defs>
<linearGradient id="paint0_linear_7820_43121" x1="6.45121" y1="10.3642" x2="18.8482" y2="7.41143" gradientUnits="userSpaceOnUse">
<stop stop-color="#61C3FF"/>
<stop offset="1" stop-color="#4379FF"/>
</linearGradient>
<clipPath id="clip0_7820_43121">
<rect width="76" height="18" fill="white"/>
</clipPath>
</defs>
</svg>
