<svg xmlns="http://www.w3.org/2000/svg" xmlns:xlink="http://www.w3.org/1999/xlink" width="60" height="32" viewBox="0 0 60 32">
    <defs>
        <path id="j0uuopn6va" d="M0 0.289L15.003 0.289 15.003 14.082 0 14.082z"/>
    </defs>
    <g fill="none" fill-rule="evenodd">
        <g>
            <g>
                <g>
                    <g>
                        <g>
                            <g>
                                <g transform="translate(-820 -318) translate(71 308) translate(433) translate(280) translate(36 10) translate(7 10) translate(0 .032)">
                                    <mask id="lou70beufb" fill="#fff">
                                        <use xlink:href="#j0uuopn6va"/>
                                    </mask>
                                    <path fill="#1E1E1E" d="M2.848 14.078c-.147-.428.106-.919.232-1.39.129-.482.27-.985.364-1.458C1.702 10.046 0 8.865 0 6.164c0-1.899 1.09-3.315 2.252-4.206C3.516.99 5.088.415 7.021.303c2.143-.125 4.233.588 5.496 1.49 1.423 1.015 2.811 2.817 2.418 5.232-.277 1.697-1.374 2.873-2.682 3.742-1.274.846-3.131 1.464-5.067 1.357-.26-.014-.698-.146-.993-.099-.255.041-.593.35-.861.53-.575.384-1.06.712-1.623 1.093-.253.17-.504.475-.86.43" mask="url(#lou70beufb)"/>
                                </g>
                                <path fill="#1E1E1E" d="M45.78 1.94c-.788 2.208-1.674 4.581-2.477 6.856-.798 2.26-1.721 4.457-3.624 5.67-.581-.363-1.016-.874-1.508-1.328.753-.718 1.458-1.485 1.975-2.44-1.041-2.92-2.162-5.759-3.16-8.722.722-.283 1.525-.486 2.37-.646.668 2.323 1.34 4.642 2.01 6.963.773-2.253 1.312-4.741 2.08-6.998.822.171 1.578.408 2.334.646M21.555 10.769c-.083 1.03-.012 2.214-.036 3.302-.72.061-1.685.058-2.405 0 .024-4.138-.048-8.374.036-12.454h1.615c.209.15.2.519.359.718.592-.445 1.152-.835 1.988-.97v1.952c-.588-.062-1.238.08-1.557.382-.06 1.687-.06 3.625 0 5.311.603.097 1.096.113 1.557-.025v1.895c-.477.027-.996-.007-1.557-.111zm1.557-9.405c.088-.014.178-.026.273-.034 2.355-.207 3.551 1.556 3.732 3.697.27 3.182-1.07 5.687-4.005 5.853V8.985c.105-.032.207-.07.309-.118 1.458-.685 1.717-4.223.61-5.203-.223-.198-.559-.31-.919-.347V1.364zM32.12 3.412c-.886-.044-1.937.246-2.49.503-.283-.448-.466-.995-.647-1.544.792-.577 1.813-.952 3.015-1.041l.122-.007v2.089zm0 7.376c-.171.042-.353.073-.553.089-2.075.164-3.462-1.302-3.05-3.517.294-1.578 1.714-2.15 3.603-2.238v1.554c-.363.022-.704.097-.983.289-.498.343-.704 1.244-.287 1.758.273.336.767.369 1.27.267v1.798zm3.755-.162c-.474.054-1.179.063-1.651 0-.183-.152-.196-.475-.288-.719-.644.354-1.138.71-1.816.88V8.99c.61-.125 1.233-.445 1.493-.661V6.714c-.469-.002-1.001-.068-1.493-.038V5.122c.46-.022.95-.016 1.458.013.244-1.252-.512-1.678-1.458-1.723v-2.09c2.253-.12 3.587 1.098 3.755 3.167.147 1.82-.11 4.025 0 6.137z" transform="translate(-820 -318) translate(71 308) translate(433) translate(280) translate(36 10) translate(7 10)"/>
                            </g>
                        </g>
                    </g>
                </g>
            </g>
        </g>
    </g>
</svg>
