<svg width="16.33" height="19.27" viewBox="0 0 20 24" fill="none" xmlns="http://www.w3.org/2000/svg">
    <path fill-rule="evenodd" clip-rule="evenodd" d="M9.99883 5.67969C8.90328 5.67969 7.84163 6.08948 7.05007 6.83581C6.25652 7.58403 5.79883 8.61182 5.79883 9.69686C5.79883 10.5049 6.05328 11.2896 6.52223 11.9513C6.9906 12.6122 7.64996 13.1188 8.41045 13.4158C9.1706 13.7127 10.004 13.7896 10.8075 13.6389C11.6111 13.4882 12.3568 13.1149 12.9476 12.5579C13.539 12.0003 13.949 11.2826 14.1158 10.4919C14.2827 9.70069 14.1964 8.88128 13.8708 8.14003C13.5455 7.3996 12.999 6.77635 12.3097 6.34208C11.6209 5.90815 10.8169 5.67969 9.99883 5.67969ZM8.4221 8.29098C8.83078 7.90566 9.39699 7.67969 9.99883 7.67969C10.4466 7.67969 10.8799 7.80514 11.2436 8.03426C11.6068 8.26306 11.8806 8.58224 12.0397 8.94445C12.1985 9.30583 12.2389 9.69972 12.1589 10.0791C12.0787 10.4589 11.8792 10.8164 11.5756 11.1027C11.2713 11.3897 10.8766 11.5911 10.4388 11.6732C10.0008 11.7553 9.54733 11.7127 9.13803 11.5529C8.72908 11.3932 8.38889 11.1263 8.15402 10.7949C7.91973 10.4643 7.79883 10.0823 7.79883 9.69686C7.79883 9.18149 8.01542 8.67443 8.4221 8.29098Z" fill="#333"></path>
    <path fill-rule="evenodd" clip-rule="evenodd" d="M10.0003 0.400391L9.99815 0.400393C7.41856 0.403152 4.93449 1.37003 3.09359 3.10576C1.25069 4.84336 0.202208 7.21222 0.199219 9.69641V9.69762C0.199219 13.6169 2.39643 16.9662 4.50054 19.2902C6.62273 21.6341 8.78516 23.0841 8.9905 23.2192C9.29145 23.4176 9.64348 23.5204 9.99922 23.5204C10.355 23.5204 10.707 23.4176 11.0079 23.2192C11.2133 23.0841 13.3757 21.6341 15.4979 19.2902C17.602 16.9662 19.7992 13.6169 19.7992 9.69762V9.69641C19.7962 7.21222 18.7477 4.84336 16.9049 3.10576C15.0639 1.37003 12.5799 0.403152 10.0003 0.400391ZM4.46562 4.56094C5.92396 3.18592 7.91302 2.40289 9.99922 2.40039C12.0854 2.40289 14.0745 3.18592 15.5328 4.56094C16.9894 5.93432 17.7969 7.78342 17.7992 9.69882C17.7988 12.8788 15.9962 15.76 14.0153 17.9478C12.2428 19.9055 10.4337 21.1906 9.99922 21.4875C9.56474 21.1906 7.7556 19.9055 5.98314 17.9478C4.00213 15.7599 2.19945 12.8785 2.19922 9.69823C2.20169 7.78304 3.00917 5.93418 4.46562 4.56094Z" fill="#333"></path>
</svg>